<svg width="14" height="15" viewBox="0 0 14 15" fill="none" xmlns="http://www.w3.org/2000/svg">
<path d="M8.07868 8.54H12.6484C13.2649 8.54 13.7648 8.04018 13.7648 7.42362V7.42362C13.7648 6.80706 13.2649 6.30724 12.6484 6.30724H8.07868V1.22511C8.07868 0.629402 7.59577 0.146484 7.00006 0.146484V0.146484C6.40435 0.146484 5.92143 0.629401 5.92143 1.22511V6.30724H1.35173C0.735172 6.30724 0.235352 6.80706 0.235352 7.42362V7.42362C0.235352 8.04018 0.735171 8.54 1.35173 8.54H5.92143V13.7737C5.92143 14.3694 6.40435 14.8524 7.00006 14.8524V14.8524C7.59577 14.8524 8.07868 14.3695 8.07868 13.7737V8.54Z" fill="#959595"/>
</svg>
