<svg width="29" height="28" viewBox="0 0 29 28" fill="none" xmlns="http://www.w3.org/2000/svg">
<path d="M4.15323 17.4832C4.79037 18.0996 6.01328 18.2435 6.95871 17.3805C7.29784 17.0825 7.96581 16.3736 9.01401 15.3154C14.1522 10.1167 17.3174 6.83929 17.8826 7.35299C18.3348 7.76395 16.5878 10.24 14.8408 12.6647C11.6448 17.0928 8.95235 20.3291 10.9768 22.3531C12.5594 23.9353 14.9641 22.4969 18.8178 19.1168C20.8833 17.2983 22.3221 15.9524 22.6817 16.3017C22.9078 16.5277 22.3632 17.4216 21.6644 18.6236C20.6778 20.3291 19.3624 22.2606 20.647 23.5449C21.541 24.4387 23.2469 24.0483 25.2303 22.086C25.6414 21.6853 25.7338 21.2024 25.3844 20.8634C25.0659 20.5449 24.6137 20.5962 24.2746 20.9045C22.99 22.1373 22.0343 22.6716 21.8802 22.4969C21.6849 22.312 22.2296 21.336 23.175 19.651C24.4801 17.3188 25.2817 15.7572 24.0793 14.5859C22.4659 13.0243 20.5751 14.6784 17.2969 17.5654C14.5119 20.0106 13.3712 20.6476 13.1143 20.3702C12.7444 19.9798 13.772 18.5928 16.8139 14.3393C20.1023 9.75711 22.0549 6.77764 20.2051 4.96941C17.7901 2.61665 14.5428 4.35297 6.49627 12.3154C5.32475 13.466 4.59512 14.1647 4.23544 14.5962C3.30028 15.675 3.50581 16.8668 4.15323 17.4832Z" fill="#959595"/>
</svg>
