<svg aria-hidden="true" style="position:absolute;width:0;height:0;overflow:hidden" xmlns="http://www.w3.org/2000/svg">
  <defs>
    <symbol id="icon-wave" viewBox="0 0 32 32">
      <path d="M4.583 19.844c.703.68 2.052.839 3.096-.113.374-.329 1.111-1.111 2.268-2.279 5.67-5.736 9.162-9.353 9.786-8.786.499.453-1.429 3.186-3.356 5.861-3.527 4.886-6.498 8.457-4.264 10.691 1.746 1.746 4.4.159 8.652-3.571 2.279-2.007 3.867-3.492 4.264-3.106.25.249-.351 1.236-1.123 2.562-1.089 1.882-2.54 4.013-1.123 5.43.986.986 2.869.555 5.057-1.61.454-.442.556-.975.17-1.349-.351-.351-.85-.295-1.225.045-1.418 1.36-2.472 1.95-2.642 1.757-.215-.204.386-1.281 1.429-3.14 1.44-2.573 2.325-4.297.998-5.589-1.78-1.723-3.867.102-7.484 3.288-3.073 2.698-4.332 3.401-4.615 3.095-.408-.431.726-1.961 4.082-6.655 3.629-5.056 5.783-8.344 3.742-10.339-2.665-2.596-6.248-.68-15.127 8.106-1.293 1.27-2.098 2.041-2.495 2.517-1.032 1.19-.805 2.506-.091 3.186z"/>
    </symbol>
    <symbol id="icon-plus" viewBox="0 0 32 32">
      <path d="M18.301 18.219h9.749a2.382 2.382 0 0 0 0-4.764h-9.749V2.613a2.3 2.3 0 1 0-4.602 0v10.842H3.95a2.382 2.382 0 0 0 0 4.764h9.749v11.165a2.3 2.3 0 1 0 4.602 0V18.219z"/>
    </symbol>
    <symbol id="icon-glass" viewBox="0 0 32 32">
      <path d="M12.957 25.18c2.609 0 5.016-.844 6.984-2.25l7.406 7.406c.344.344.797.516 1.281.516 1.016 0 1.734-.781 1.734-1.781 0-.469-.156-.922-.5-1.25l-7.359-7.375a11.967 11.967 0 0 0 2.469-7.281c0-6.609-5.406-12.016-12.016-12.016C6.362 1.149.94 6.54.94 13.165c0 6.609 5.406 12.016 12.016 12.016zm0-2.594c-5.156 0-9.422-4.266-9.422-9.422s4.266-9.422 9.422-9.422c5.156 0 9.422 4.266 9.422 9.422s-4.266 9.422-9.422 9.422z"/>
    </symbol>
    <symbol id="icon-microphone" viewBox="0 0 32 32">
      <path d="M16.109 20.586c2.782 0 4.655-2.083 4.655-5.061V6.172c0-2.992-1.873-5.061-4.655-5.061-2.796 0-4.669 2.069-4.669 5.061v9.353c0 2.978 1.873 5.061 4.669 5.061zm-10.01-4.838c0 5.48 3.621 9.325 8.947 9.772v3.257H9.859c-.587 0-1.063.475-1.063 1.063s.475 1.048 1.063 1.048h12.484c.587 0 1.062-.461 1.062-1.048s-.475-1.063-1.062-1.063h-5.187V25.52c5.34-.447 8.947-4.292 8.947-9.772V12.91c0-.587-.461-1.049-1.049-1.049s-1.062.461-1.062 1.049v2.754c0 4.767-3.104 7.927-7.885 7.927-4.795 0-7.899-3.16-7.899-7.927V12.91c0-.587-.461-1.049-1.063-1.049-.587 0-1.049.461-1.049 1.049v2.838z"/>
    </symbol>
    <symbol id="icon-dots" viewBox="0 0 32 32">
<path d="M23 17c0.552 0 1-0.448 1-1s-0.448-1-1-1c-0.552 0-1 0.448-1 1s0.448 1 1 1z"></path>
<path d="M16 17c0.552 0 1-0.448 1-1s-0.448-1-1-1c-0.552 0-1 0.448-1 1s0.448 1 1 1z"></path>
<path d="M9 17c0.552 0 1-0.448 1-1s-0.448-1-1-1c-0.552 0-1 0.448-1 1s0.448 1 1 1z"></path>
<path stroke-linejoin="round" stroke-linecap="round" stroke-miterlimit="4" stroke-width="1.6" d="M23 17c0.552 0 1-0.448 1-1s-0.448-1-1-1c-0.552 0-1 0.448-1 1s0.448 1 1 1z"></path>
<path stroke-linejoin="round" stroke-linecap="round" stroke-miterlimit="4" stroke-width="1.6" d="M16 17c0.552 0 1-0.448 1-1s-0.448-1-1-1c-0.552 0-1 0.448-1 1s0.448 1 1 1z"></path>
<path stroke-linejoin="round" stroke-linecap="round" stroke-miterlimit="4" stroke-width="1.6" d="M9 17c0.552 0 1-0.448 1-1s-0.448-1-1-1c-0.552 0-1 0.448-1 1s0.448 1 1 1z"></path>
</symbol>
    <symbol id="icon-clock" viewBox="0 0 32 32">
      <path stroke-linejoin="round" stroke-linecap="round" stroke-width="1.548" d="M16.865 12.129v4.839l1.935 1.935"/>
      <path stroke-linejoin="round" stroke-linecap="round" stroke-width="1.548" d="M10.236 20.84c1.028 1.546 2.504 2.713 4.205 3.327s3.537.641 5.229.076c1.692-.564 3.15-1.689 4.153-3.205s1.498-3.341 1.41-5.2c-.088-1.859-.755-3.651-1.9-5.107s-2.705-2.495-4.446-2.963a7.914 7.914 0 0 0-5.208.371c-2.604 1.125-4.022 3.737-5.746 5.906m0 0-.896-4.82m.896 4.82 4.91-.948"/>
    </symbol>
    <symbol id="icon-pack" viewBox="0 0 32 32">
      <path stroke-linejoin="round" stroke-linecap="round" stroke-width="2.133" d="M24 21.42v-6.184a3.134 3.134 0 0 0-1.002-2.298L17.1 7.432a1.612 1.612 0 0 0-2.198 0l-5.898 5.506a3.147 3.147 0 0 0-1.002 2.298v6.184c0 .419.169.821.469 1.118s.707.463 1.131.463h12.8c.424 0 .831-.166 1.131-.463s.469-.698.469-1.118z"/>
    </symbol>
    <symbol id="icon-sett" viewBox="0 0 32 32">
      <path d="M23.518 16.527v-1.061l1.367-1.165c.252-.216.417-.512.467-.836s-.02-.654-.196-.932l-1.68-2.773c-.125-.211-.304-.385-.521-.507s-.462-.186-.711-.186a1.466 1.466 0 0 0-.456.069l-1.73.568a8.165 8.165 0 0 0-.933-.52l-.363-1.747c-.065-.319-.243-.606-.504-.81s-.586-.312-.92-.306h-3.332c-.334-.006-.66.102-.92.306s-.439.491-.504.81l-.363 1.747a8.26 8.26 0 0 0-.94.52l-1.695-.596a1.458 1.458 0 0 0-.456-.042c-.25 0-.495.064-.711.186s-.396.297-.521.507l-1.68 2.773a1.359 1.359 0 0 0 .292 1.74l1.346 1.199v1.061l-1.346 1.165a1.363 1.363 0 0 0-.292 1.768l1.68 2.773c.125.211.304.385.521.507s.461.186.711.186c.155.001.309-.022.456-.069l1.73-.568c.299.193.61.367.933.52l.363 1.747c.065.319.243.606.504.81s.586.312.92.306h3.361c.334.006.66-.102.92-.306s.439-.491.504-.81l.363-1.747a8.26 8.26 0 0 0 .94-.52l1.723.568c.147.047.301.07.456.069.25 0 .495-.064.711-.186s.396-.297.521-.507l1.623-2.773a1.359 1.359 0 0 0-.292-1.74l-1.346-1.199zm-1.274 5.019-2.442-.804a6.352 6.352 0 0 1-1.93 1.088l-.506 2.489h-3.361l-.505-2.461a6.687 6.687 0 0 1-1.922-1.088l-2.449.776-1.68-2.773 1.937-1.664a5.995 5.995 0 0 1 0-2.17l-1.937-1.712 1.68-2.773 2.442.804A6.359 6.359 0 0 1 13.5 10.17l.505-2.489h3.361l.506 2.461a6.687 6.687 0 0 1 1.922 1.088l2.449-.776 1.68 2.773-1.937 1.664a5.995 5.995 0 0 1 0 2.17l1.937 1.712-1.68 2.773z"/>
      <path d="M15.69 19.871a3.875 3.875 0 0 1-3.577-2.389 3.869 3.869 0 0 1 6.794-3.631c.425.636.652 1.385.652 2.15a3.827 3.827 0 0 1-2.383 3.586 3.83 3.83 0 0 1-1.487.284zm0-6.452A2.52 2.52 0 0 0 13.109 16a2.52 2.52 0 0 0 2.581 2.581A2.52 2.52 0 0 0 18.271 16a2.52 2.52 0 0 0-2.581-2.581z"/>
    </symbol>
    <symbol id="icon-arr" viewBox="0 0 32 32">
      <path stroke-linejoin="round" stroke-linecap="round" stroke-width="1.412" d="m8 12 8 8 8-8"/>
    </symbol>
  </defs>
</svg>
