<svg width="12" height="19" viewBox="0 0 12 19" fill="none" xmlns="http://www.w3.org/2000/svg">
<path d="M6.06494 12.2227C7.7168 12.2227 8.8291 10.9858 8.8291 9.21777V3.66455C8.8291 1.88818 7.7168 0.659668 6.06494 0.659668C4.40479 0.659668 3.29248 1.88818 3.29248 3.66455V9.21777C3.29248 10.9858 4.40479 12.2227 6.06494 12.2227ZM0.121582 9.35059C0.121582 12.6045 2.27148 14.8872 5.43408 15.1528V17.0869H2.35449C2.00586 17.0869 1.72363 17.3691 1.72363 17.7178C1.72363 18.0664 2.00586 18.3403 2.35449 18.3403H9.76709C10.1157 18.3403 10.3979 18.0664 10.3979 17.7178C10.3979 17.3691 10.1157 17.0869 9.76709 17.0869H6.6875V15.1528C9.8584 14.8872 12 12.6045 12 9.35059V7.66553C12 7.31689 11.7261 7.04297 11.3774 7.04297C11.0288 7.04297 10.7466 7.31689 10.7466 7.66553V9.30078C10.7466 12.1313 8.90381 14.0073 6.06494 14.0073C3.21777 14.0073 1.375 12.1313 1.375 9.30078V7.66553C1.375 7.31689 1.10107 7.04297 0.744141 7.04297C0.395508 7.04297 0.121582 7.31689 0.121582 7.66553V9.35059Z" fill="#EBEBF5" fill-opacity="0.6"/>
</svg>
