<svg width="31" height="30" viewBox="0 0 31 30" fill="none" xmlns="http://www.w3.org/2000/svg">
<path d="M22.7833 15.5104V14.4829L24.1076 13.3547C24.3517 13.1452 24.5119 12.8585 24.5599 12.5451C24.6078 12.2317 24.5405 11.912 24.3697 11.6423L22.742 8.9561C22.621 8.75213 22.4471 8.58271 22.2377 8.46484C22.0282 8.34698 21.7906 8.2848 21.5487 8.28456C21.3988 8.28344 21.2497 8.30612 21.1073 8.35172L19.4313 8.90238C19.1419 8.71516 18.8401 8.5469 18.5277 8.39872L18.176 6.70643C18.1129 6.39726 17.9402 6.11953 17.688 5.92187C17.4358 5.72421 17.1202 5.61921 16.7965 5.62525H13.5686C13.2449 5.61921 12.9294 5.72421 12.6772 5.92187C12.425 6.11953 12.2522 6.39726 12.1892 6.70643L11.8374 8.39872C11.5228 8.54687 11.2187 8.71512 10.927 8.90238L9.28542 8.32485C9.14147 8.28834 8.9924 8.27473 8.84399 8.28456C8.60209 8.2848 8.3645 8.34698 8.15507 8.46484C7.94564 8.58271 7.77172 8.75213 7.65077 8.9561L6.02302 11.6423C5.86203 11.9116 5.8022 12.227 5.85379 12.5345C5.90538 12.842 6.06518 13.1224 6.3058 13.3279L7.60939 14.4896V15.5171L6.3058 16.6453C6.05838 16.8521 5.89421 17.1376 5.84245 17.4511C5.79068 17.7646 5.85465 18.0858 6.02302 18.3577L7.65077 21.0439C7.77172 21.2479 7.94564 21.4173 8.15507 21.5352C8.3645 21.653 8.60209 21.7152 8.84399 21.7154C8.99391 21.7166 9.143 21.6939 9.28542 21.6483L10.9615 21.0976C11.2508 21.2848 11.5527 21.4531 11.865 21.6013L12.2168 23.2936C12.2798 23.6027 12.4526 23.8805 12.7048 24.0781C12.957 24.2758 13.2725 24.3808 13.5962 24.3748H16.8517C17.1754 24.3808 17.491 24.2758 17.7431 24.0781C17.9953 23.8805 18.1681 23.6027 18.2312 23.2936L18.5829 21.6013C18.8975 21.4531 19.2016 21.2849 19.4934 21.0976L21.1625 21.6483C21.3049 21.6939 21.454 21.7166 21.6039 21.7154C21.8458 21.7152 22.0834 21.653 22.2928 21.5352C22.5023 21.4173 22.6762 21.2479 22.7971 21.0439L24.3697 18.3577C24.5307 18.0884 24.5905 17.773 24.5389 17.4655C24.4873 17.158 24.3276 16.8776 24.0869 16.6721L22.7833 15.5104ZM21.5487 20.3724L19.183 19.5934C18.6292 20.0501 17.9962 20.4071 17.3138 20.6477L16.8241 23.0585H13.5686L13.0789 20.6745C12.4019 20.4271 11.7724 20.0707 11.2166 19.6202L8.84399 20.3724L7.21624 17.6862L9.0923 16.0745C8.96476 15.3793 8.96476 14.6677 9.0923 13.9725L7.21624 12.3138L8.84399 9.62765L11.2098 10.4066C11.7636 9.94992 12.3965 9.5929 13.0789 9.35232L13.5686 6.94147H16.8241L17.3138 9.32545C17.9908 9.57287 18.6204 9.92927 19.1761 10.3798L21.5487 9.62765L23.1765 12.3138L21.3004 13.9255C21.428 14.6207 21.428 15.3323 21.3004 16.0275L23.1765 17.6862L21.5487 20.3724Z" fill="#959595"/>
<path d="M15.1999 18.7498C14.4582 18.7498 13.7332 18.5299 13.1165 18.1178C12.4999 17.7058 12.0192 17.1201 11.7354 16.4349C11.4516 15.7497 11.3773 14.9957 11.522 14.2683C11.6667 13.5409 12.0238 12.8728 12.5483 12.3483C13.0727 11.8239 13.7409 11.4667 14.4683 11.3221C15.1957 11.1774 15.9497 11.2516 16.6349 11.5354C17.3201 11.8193 17.9057 12.2999 18.3178 12.9166C18.7298 13.5332 18.9498 14.2582 18.9498 14.9999C18.9548 15.4937 18.8612 15.9836 18.6745 16.4408C18.4879 16.8981 18.2118 17.3134 17.8626 17.6627C17.5134 18.0119 17.098 18.2879 16.6408 18.4746C16.1836 18.6613 15.6937 18.7548 15.1999 18.7498ZM15.1999 12.5C14.8695 12.4923 14.5409 12.5517 14.2341 12.6746C13.9274 12.7975 13.6487 12.9814 13.415 13.215C13.1813 13.4487 12.9974 13.7274 12.8745 14.0342C12.7516 14.341 12.6922 14.6695 12.6999 14.9999C12.6922 15.3303 12.7516 15.6588 12.8745 15.9656C12.9974 16.2724 13.1813 16.5511 13.415 16.7848C13.6487 17.0185 13.9274 17.2023 14.2341 17.3252C14.5409 17.4481 14.8695 17.5075 15.1999 17.4998C15.5303 17.5075 15.8588 17.4481 16.1656 17.3252C16.4724 17.2023 16.751 17.0185 16.9847 16.7848C17.2184 16.5511 17.4023 16.2724 17.5252 15.9656C17.6481 15.6588 17.7075 15.3303 17.6998 14.9999C17.7075 14.6695 17.6481 14.341 17.5252 14.0342C17.4023 13.7274 17.2184 13.4487 16.9847 13.215C16.751 12.9814 16.4724 12.7975 16.1656 12.6746C15.8588 12.5517 15.5303 12.4923 15.1999 12.5Z" fill="#959595"/>
</svg>
