<svg width="31" height="30" viewBox="0 0 31 30" fill="none" xmlns="http://www.w3.org/2000/svg">
<path d="M16.3375 11.25V15.9375L18.2125 17.8125" stroke="#959595" stroke-width="1.5" stroke-linecap="round" stroke-linejoin="round"/>
<path d="M9.91638 19.689C10.912 21.1864 12.3417 22.3177 13.9901 22.9124C15.6385 23.5071 17.4163 23.5331 19.0556 22.9864C20.6949 22.4396 22.1069 21.3499 23.0789 19.8812C24.0509 18.4125 24.5301 16.6446 24.4445 14.8437C24.3589 13.0428 23.713 11.3066 22.6041 9.8966C21.4953 8.48661 19.9835 7.47925 18.2967 7.0263C16.6098 6.57335 14.8393 6.69935 13.2518 7.38531C10.7292 8.47531 9.35509 11.0056 7.68497 13.1064M7.68497 13.1064L6.81662 8.43747M7.68497 13.1064L12.4413 12.1877" stroke="#959595" stroke-width="1.5" stroke-linecap="round" stroke-linejoin="round"/>
</svg>
