<svg width="30" height="30" viewBox="0 0 30 30" fill="none" xmlns="http://www.w3.org/2000/svg">
<path d="M22.5 20.0809V14.2835C22.5 13.8802 22.4167 13.4811 22.2551 13.1106C22.0935 12.7402 21.8571 12.4063 21.5602 12.1293L16.0305 6.96748C15.752 6.70741 15.3833 6.5625 15 6.5625C14.6167 6.5625 14.248 6.70741 13.9695 6.96748L8.43975 12.1293C8.14292 12.4063 7.90646 12.7402 7.74487 13.1106C7.58328 13.4811 7.49996 13.8802 7.5 14.2835V20.0809C7.5 20.4739 7.65804 20.8507 7.93934 21.1286C8.22064 21.4064 8.60218 21.5625 9 21.5625H21C21.3978 21.5625 21.7794 21.4064 22.0607 21.1286C22.342 20.8507 22.5 20.4739 22.5 20.0809Z" stroke="#AC8E68" stroke-width="2" stroke-linecap="round" stroke-linejoin="round"/>
</svg>
